<svg width="512" height="512" viewBox="0 0 512 512" fill="none" xmlns="http://www.w3.org/2000/svg">
<rect width="512" height="512" fill="#121212"/>
<path d="M203.297 253.84C213.708 256.059 222.07 261.264 228.385 269.456C234.7 277.477 237.857 286.693 237.857 297.104C237.857 312.123 232.566 324.069 221.985 332.944C211.574 341.648 196.982 346 178.209 346H94.497V166.288H175.393C193.654 166.288 207.905 170.469 218.145 178.832C228.556 187.195 233.761 198.544 233.761 212.88C233.761 223.461 230.945 232.251 225.313 239.248C219.852 246.245 212.513 251.109 203.297 253.84ZM138.273 238.992H166.945C174.113 238.992 179.574 237.456 183.329 234.384C187.254 231.141 189.217 226.448 189.217 220.304C189.217 214.16 187.254 209.467 183.329 206.224C179.574 202.981 174.113 201.36 166.945 201.36H138.273V238.992ZM170.529 310.672C177.868 310.672 183.5 309.051 187.425 305.808C191.521 302.395 193.569 297.531 193.569 291.216C193.569 284.901 191.436 279.952 187.169 276.368C183.073 272.784 177.356 270.992 170.017 270.992H138.273V310.672H170.529ZM330.575 166.288C349.519 166.288 366.074 170.043 380.239 177.552C394.404 185.061 405.327 195.643 413.007 209.296C420.858 222.779 424.783 238.395 424.783 256.144C424.783 273.723 420.858 289.339 413.007 302.992C405.327 316.645 394.319 327.227 379.983 334.736C365.818 342.245 349.348 346 330.575 346H263.247V166.288H330.575ZM327.759 308.112C344.314 308.112 357.199 303.589 366.415 294.544C375.631 285.499 380.239 272.699 380.239 256.144C380.239 239.589 375.631 226.704 366.415 217.488C357.199 208.272 344.314 203.664 327.759 203.664H307.023V308.112H327.759Z" fill="white"/>
</svg>
